<?xml version="1.0" standalone="no"?><!DOCTYPE svg PUBLIC "-//W3C//DTD SVG 1.1//EN" "http://www.w3.org/Graphics/SVG/1.1/DTD/svg11.dtd"><svg t="1574216698831" class="icon" viewBox="0 0 1024 1024" version="1.1" xmlns="http://www.w3.org/2000/svg" p-id="7694" width="14" height="14" xmlns:xlink="http://www.w3.org/1999/xlink"><defs><style type="text/css"></style></defs><path d="M504.1152 939.5712a48.3328 48.3328 0 0 1-34.048-82.2272l343.3472-344.0128A213.8112 213.8112 0 1 0 511.0272 210.944l-320.6656 320.6144a144.9472 144.9472 0 0 0 205.056 204.8L696.32 435.3536a73.472 73.472 0 1 0-103.5776-104.2432l-241.7152 242.3808a48.2816 48.2816 0 0 1-68.2496-68.2496l241.92-241.92a169.8816 169.8816 0 0 1 240.0768 240.2304l-301.1072 300.9536a241.664 241.664 0 1 1-341.5552-342.016L442.7776 141.824a310.5792 310.5792 0 0 1 438.8864 439.552l-343.3472 343.7056a49.3568 49.3568 0 0 1-34.2016 14.4896z" p-id="7695" fill="#1b85ff"></path></svg>